<svg width="100" height="100" viewBox="0 0 100 100" fill="none" xmlns="http://www.w3.org/2000/svg">
<g filter="url(#filter0_ii_1034_1762)">
<g clip-path="url(#clip0_1034_1762)">
<rect width="100" height="100" rx="50" fill="#2F4C38" fill-opacity="0.5"/>
<g filter="url(#filter1_d_1034_1762)">
<mask id="path-3-outside-1_1034_1762" maskUnits="userSpaceOnUse" x="32.9082" y="24.7773" width="33" height="30" fill="black">
<rect fill="white" x="32.9082" y="24.7773" width="33" height="30"/>
<path d="M44.7815 53.354C44.5147 53.3241 43.5793 53.2315 42.7028 53.1484C39.5887 52.8529 36.3077 52.0813 35.27 51.4005L34.9082 51.1631L34.9847 48.4499C35.068 45.4983 35.3159 43.9178 35.987 42.0597C36.6939 40.1027 37.8976 38.0099 38.9859 36.8454C39.3688 36.4358 39.3766 36.4018 39.174 36.0129C39.0578 35.7899 38.9625 35.4451 38.9621 35.2466C38.961 34.7958 39.484 34.001 39.9276 33.7797C40.1938 33.6467 40.3121 33.3996 40.5081 32.5686C40.9014 30.8995 41.6012 29.6704 42.8943 28.3777C44.7077 26.5646 46.672 25.7906 49.4932 25.7775C51.2416 25.7694 52.2797 26.0131 53.9277 26.8189C56.1525 27.9066 57.8626 30.0558 58.5052 32.5714C58.6557 33.1605 58.7941 33.6505 58.8131 33.6603C58.8319 33.6702 59.009 33.7475 59.2065 33.8321C59.6001 34.0007 60.0252 34.7607 60.0252 35.2957C60.0252 35.4826 59.9565 35.8331 59.8724 36.0745C59.7306 36.4819 59.7564 36.5543 60.2296 37.0788C60.9249 37.8495 61.8886 39.3648 62.3783 40.4576C63.4258 42.7952 63.8739 45.0465 64 48.6047L64.087 51.0567L63.6151 51.3474C62.579 51.9858 59.8168 52.661 56.4222 53.1055C55.1842 53.2677 53.3456 53.3434 49.9782 53.3706C47.3868 53.3915 45.0482 53.3842 44.7815 53.354ZM53.1617 52.376L53.8199 52.2855L53.7503 48.9418C53.6765 45.3855 53.5619 44.6391 52.8848 43.3011C52.3949 42.3333 51.9182 41.8364 51.0907 41.431C49.2056 40.5076 47.1203 41.2685 46.0673 43.2639C45.3033 44.7119 45.0809 46.5406 45.1646 50.6875C45.196 52.2458 45.2093 52.3105 45.509 52.3683C46.0216 52.4671 52.4502 52.4735 53.1617 52.376ZM44.1267 48.824C44.1978 45.2239 44.3212 44.3886 44.992 42.9688C45.4866 41.9221 46.2881 41.073 47.3007 40.5233C48.1244 40.0761 48.2552 40.0478 49.4932 40.0494C50.6855 40.0509 50.8787 40.0892 51.5405 40.4549C51.9426 40.6769 52.5454 41.1518 52.8801 41.5101C54.2825 43.0113 54.6955 44.6219 54.8418 49.1617L54.9401 52.2111L55.7851 52.1229C56.2498 52.0744 57.1207 51.9675 57.7204 51.8853L58.8107 51.7357L58.742 48.2505C58.6947 45.857 58.6008 44.3743 58.4421 43.5166C58.1471 41.9215 57.3914 39.6569 56.7403 38.4163L56.2322 37.4482L55.5304 37.5349C52.1639 37.951 46.7662 37.9871 44.0556 37.6118C43.1234 37.4827 42.7991 37.4819 42.6471 37.6082C42.3573 37.8489 41.3871 40.1406 40.9852 41.5331C40.475 43.3016 40.215 45.4711 40.1151 48.7948L40.0266 51.74L40.9837 51.892C42.31 52.1025 42.6757 52.144 43.4162 52.168L44.0602 52.1888L44.1267 48.824ZM39.2765 48.0608C39.357 44.1504 39.5152 42.932 40.2348 40.6783C40.4675 39.9499 40.8975 38.8757 41.1904 38.2913L41.7231 37.2285L41.0214 37.0601C40.191 36.8606 40.2291 36.8327 39.0276 38.5215C36.993 41.381 36.1524 44.1016 35.9758 48.3972L35.8842 50.6286L36.4945 50.862C36.9963 51.0539 38.7938 51.5744 39.1167 51.6211C39.1643 51.6281 39.2362 50.0259 39.2765 48.0608ZM61.8581 50.991L62.9354 50.6504L62.9344 48.6791C62.9324 43.9588 61.7174 40.2818 59.2387 37.4948L58.6958 36.8844L57.9747 37.0577C57.5781 37.1529 57.2535 37.2475 57.2535 37.2679C57.2535 37.2882 57.5302 37.8908 57.8685 38.6069C59.1342 41.2863 59.5776 43.6386 59.7053 48.3497L59.791 51.5178L60.2858 51.4248C60.5579 51.3737 61.2657 51.1785 61.8581 50.991ZM53.341 34.6155L54.0707 34.5277L53.9812 33.8189C53.6104 30.8794 52.4872 28.5368 50.8586 27.3062C50.031 26.6808 49.5565 26.6085 48.739 26.9833C46.7769 27.8829 45.5102 30.2489 44.9993 33.9688L44.9195 34.5502L45.4394 34.6046C46.339 34.6988 52.577 34.7074 53.341 34.6155ZM44.0886 33.9578C44.0886 33.1267 44.5104 31.2289 44.9303 30.1705C45.3872 29.0187 45.5905 28.661 46.2857 27.786C46.7389 27.2155 46.7476 27.1858 46.4326 27.2833C45.8778 27.4549 45.3117 27.7708 44.3987 28.418C43.0814 29.3519 42.0435 30.887 41.527 32.6656C41.1861 33.84 41.2258 33.9063 42.4273 34.1721C44.0139 34.523 44.0886 34.5134 44.0886 33.9578ZM56.9887 34.1013C57.858 33.9062 57.8605 33.8943 57.3615 32.2844C56.8367 30.5914 55.4747 28.8454 53.997 27.9715C53.1628 27.4781 52.3573 27.1606 52.497 27.3802C52.5598 27.479 52.8404 27.9084 53.1205 28.3345C54.0218 29.7061 54.6102 31.4988 54.839 33.5714L54.936 34.449L55.5874 34.3592C55.9456 34.3098 56.5763 34.1938 56.9887 34.1013Z"/>
</mask>
<path d="M44.7815 53.354C44.5147 53.3241 43.5793 53.2315 42.7028 53.1484C39.5887 52.8529 36.3077 52.0813 35.27 51.4005L34.9082 51.1631L34.9847 48.4499C35.068 45.4983 35.3159 43.9178 35.987 42.0597C36.6939 40.1027 37.8976 38.0099 38.9859 36.8454C39.3688 36.4358 39.3766 36.4018 39.174 36.0129C39.0578 35.7899 38.9625 35.4451 38.9621 35.2466C38.961 34.7958 39.484 34.001 39.9276 33.7797C40.1938 33.6467 40.3121 33.3996 40.5081 32.5686C40.9014 30.8995 41.6012 29.6704 42.8943 28.3777C44.7077 26.5646 46.672 25.7906 49.4932 25.7775C51.2416 25.7694 52.2797 26.0131 53.9277 26.8189C56.1525 27.9066 57.8626 30.0558 58.5052 32.5714C58.6557 33.1605 58.7941 33.6505 58.8131 33.6603C58.8319 33.6702 59.009 33.7475 59.2065 33.8321C59.6001 34.0007 60.0252 34.7607 60.0252 35.2957C60.0252 35.4826 59.9565 35.8331 59.8724 36.0745C59.7306 36.4819 59.7564 36.5543 60.2296 37.0788C60.9249 37.8495 61.8886 39.3648 62.3783 40.4576C63.4258 42.7952 63.8739 45.0465 64 48.6047L64.087 51.0567L63.6151 51.3474C62.579 51.9858 59.8168 52.661 56.4222 53.1055C55.1842 53.2677 53.3456 53.3434 49.9782 53.3706C47.3868 53.3915 45.0482 53.3842 44.7815 53.354ZM53.1617 52.376L53.8199 52.2855L53.7503 48.9418C53.6765 45.3855 53.5619 44.6391 52.8848 43.3011C52.3949 42.3333 51.9182 41.8364 51.0907 41.431C49.2056 40.5076 47.1203 41.2685 46.0673 43.2639C45.3033 44.7119 45.0809 46.5406 45.1646 50.6875C45.196 52.2458 45.2093 52.3105 45.509 52.3683C46.0216 52.4671 52.4502 52.4735 53.1617 52.376ZM44.1267 48.824C44.1978 45.2239 44.3212 44.3886 44.992 42.9688C45.4866 41.9221 46.2881 41.073 47.3007 40.5233C48.1244 40.0761 48.2552 40.0478 49.4932 40.0494C50.6855 40.0509 50.8787 40.0892 51.5405 40.4549C51.9426 40.6769 52.5454 41.1518 52.8801 41.5101C54.2825 43.0113 54.6955 44.6219 54.8418 49.1617L54.9401 52.2111L55.7851 52.1229C56.2498 52.0744 57.1207 51.9675 57.7204 51.8853L58.8107 51.7357L58.742 48.2505C58.6947 45.857 58.6008 44.3743 58.4421 43.5166C58.1471 41.9215 57.3914 39.6569 56.7403 38.4163L56.2322 37.4482L55.5304 37.5349C52.1639 37.951 46.7662 37.9871 44.0556 37.6118C43.1234 37.4827 42.7991 37.4819 42.6471 37.6082C42.3573 37.8489 41.3871 40.1406 40.9852 41.5331C40.475 43.3016 40.215 45.4711 40.1151 48.7948L40.0266 51.74L40.9837 51.892C42.31 52.1025 42.6757 52.144 43.4162 52.168L44.0602 52.1888L44.1267 48.824ZM39.2765 48.0608C39.357 44.1504 39.5152 42.932 40.2348 40.6783C40.4675 39.9499 40.8975 38.8757 41.1904 38.2913L41.7231 37.2285L41.0214 37.0601C40.191 36.8606 40.2291 36.8327 39.0276 38.5215C36.993 41.381 36.1524 44.1016 35.9758 48.3972L35.8842 50.6286L36.4945 50.862C36.9963 51.0539 38.7938 51.5744 39.1167 51.6211C39.1643 51.6281 39.2362 50.0259 39.2765 48.0608ZM61.8581 50.991L62.9354 50.6504L62.9344 48.6791C62.9324 43.9588 61.7174 40.2818 59.2387 37.4948L58.6958 36.8844L57.9747 37.0577C57.5781 37.1529 57.2535 37.2475 57.2535 37.2679C57.2535 37.2882 57.5302 37.8908 57.8685 38.6069C59.1342 41.2863 59.5776 43.6386 59.7053 48.3497L59.791 51.5178L60.2858 51.4248C60.5579 51.3737 61.2657 51.1785 61.8581 50.991ZM53.341 34.6155L54.0707 34.5277L53.9812 33.8189C53.6104 30.8794 52.4872 28.5368 50.8586 27.3062C50.031 26.6808 49.5565 26.6085 48.739 26.9833C46.7769 27.8829 45.5102 30.2489 44.9993 33.9688L44.9195 34.5502L45.4394 34.6046C46.339 34.6988 52.577 34.7074 53.341 34.6155ZM44.0886 33.9578C44.0886 33.1267 44.5104 31.2289 44.9303 30.1705C45.3872 29.0187 45.5905 28.661 46.2857 27.786C46.7389 27.2155 46.7476 27.1858 46.4326 27.2833C45.8778 27.4549 45.3117 27.7708 44.3987 28.418C43.0814 29.3519 42.0435 30.887 41.527 32.6656C41.1861 33.84 41.2258 33.9063 42.4273 34.1721C44.0139 34.523 44.0886 34.5134 44.0886 33.9578ZM56.9887 34.1013C57.858 33.9062 57.8605 33.8943 57.3615 32.2844C56.8367 30.5914 55.4747 28.8454 53.997 27.9715C53.1628 27.4781 52.3573 27.1606 52.497 27.3802C52.5598 27.479 52.8404 27.9084 53.1205 28.3345C54.0218 29.7061 54.6102 31.4988 54.839 33.5714L54.936 34.449L55.5874 34.3592C55.9456 34.3098 56.5763 34.1938 56.9887 34.1013Z" stroke="#44DEE0" stroke-width="2" mask="url(#path-3-outside-1_1034_1762)"/>
<path d="M10.1103 74.013C10.0121 73.8917 9.97195 73.6631 10.0208 73.5049C10.2703 72.6989 15.1799 67.7127 18.7669 64.622C23.103 60.8862 27.9054 58.3083 33.8032 56.5512C36.5947 55.7194 37.219 55.6191 38.2046 55.8436C41.2612 56.54 47.474 57.022 51.1961 56.8515C56.1511 56.6247 60.5992 55.9546 63.4734 55.0019C65.3788 54.3704 66.0765 53.8229 66.0803 52.9565C66.0814 52.6767 66.1316 52.3717 66.1914 52.2787C66.2512 52.1855 67.1493 51.8921 68.1871 51.6269C76.2473 49.5659 81.9896 46.2457 87.7531 40.3136C89.2262 38.7973 90.0637 38.0319 89.9962 38.2634C89.937 38.4665 89.4572 39.4867 88.9302 40.5304C84.7609 48.7865 77.4593 56.1384 69.5578 60.0364C65.5067 62.0351 59.6554 63.6156 53.8615 64.2765C49.2514 64.8022 42.2606 65.12 35.2036 65.1244C24.8481 65.1309 20.8927 65.7484 17.2949 67.9199C16.3201 68.5084 12.8254 71.8691 11.4011 73.5882C10.8489 74.2546 10.42 74.3958 10.1103 74.013ZM17.9529 63.1889C17.9535 62.2308 18.2651 59.9469 18.5516 58.7975C19.4613 55.1495 21.8031 51.7971 25.1455 49.3582C26.6872 48.2334 29.7505 46.6478 31.6406 45.9964C32.3685 45.7456 33.0212 45.5403 33.091 45.5403C33.2127 45.5403 33.1221 46.4315 32.9519 46.9067C32.8252 47.2607 32.8015 47.6916 32.742 50.7238C32.6774 54.0083 32.6542 53.9442 34.1671 54.6596C34.7151 54.9186 34.9706 55.1096 34.8334 55.1578C34.7113 55.2008 33.6784 55.5176 32.5382 55.862C27.4245 57.4064 22.5634 59.9979 18.8205 63.1751C18.4426 63.4957 18.0929 63.7582 18.0431 63.7582C17.9934 63.7582 17.9528 63.5019 17.9529 63.1889ZM66.1759 49.0462C66.082 46.982 65.8138 45.0819 65.503 44.278C65.4121 44.0428 65.3376 43.7184 65.3376 43.5569C65.3376 43.2772 65.4663 43.2631 68.0073 43.2631C74.6366 43.2631 81.0354 41.9385 87.1592 39.2984C88.1255 38.8819 88.9416 38.5672 88.9727 38.599C89.0556 38.6841 86.6798 40.8875 85.1209 42.1716C83.5255 43.4857 81.0388 45.2013 79.1807 46.27C75.9893 48.1053 70.0669 50.3827 66.9161 50.9861L66.2696 51.11L66.1759 49.0462Z" fill="#51B16E"/>
</g>
</g>
<rect x="0.25" y="0.25" width="99.5" height="99.5" rx="49.75" stroke="url(#paint0_linear_1034_1762)" stroke-width="0.5"/>
</g>
<defs>
<filter id="filter0_ii_1034_1762" x="-3" y="-3" width="106" height="106" filterUnits="userSpaceOnUse" color-interpolation-filters="sRGB">
<feFlood flood-opacity="0" result="BackgroundImageFix"/>
<feBlend mode="normal" in="SourceGraphic" in2="BackgroundImageFix" result="shape"/>
<feColorMatrix in="SourceAlpha" type="matrix" values="0 0 0 0 0 0 0 0 0 0 0 0 0 0 0 0 0 0 127 0" result="hardAlpha"/>
<feOffset dx="3" dy="-3"/>
<feGaussianBlur stdDeviation="4.3"/>
<feComposite in2="hardAlpha" operator="arithmetic" k2="-1" k3="1"/>
<feColorMatrix type="matrix" values="0 0 0 0 0 0 0 0 0 0 0 0 0 0 0 0 0 0 0.15 0"/>
<feBlend mode="normal" in2="shape" result="effect1_innerShadow_1034_1762"/>
<feColorMatrix in="SourceAlpha" type="matrix" values="0 0 0 0 0 0 0 0 0 0 0 0 0 0 0 0 0 0 127 0" result="hardAlpha"/>
<feOffset dx="-3" dy="3"/>
<feGaussianBlur stdDeviation="4.3"/>
<feComposite in2="hardAlpha" operator="arithmetic" k2="-1" k3="1"/>
<feColorMatrix type="matrix" values="0 0 0 0 0.823529 0 0 0 0 0.705882 0 0 0 0 0.54902 0 0 0 0.3 0"/>
<feBlend mode="normal" in2="effect1_innerShadow_1034_1762" result="effect2_innerShadow_1034_1762"/>
</filter>
<filter id="filter1_d_1034_1762" x="-5" y="9.77734" width="110" height="79.4453" filterUnits="userSpaceOnUse" color-interpolation-filters="sRGB">
<feFlood flood-opacity="0" result="BackgroundImageFix"/>
<feColorMatrix in="SourceAlpha" type="matrix" values="0 0 0 0 0 0 0 0 0 0 0 0 0 0 0 0 0 0 127 0" result="hardAlpha"/>
<feOffset/>
<feGaussianBlur stdDeviation="7.5"/>
<feComposite in2="hardAlpha" operator="out"/>
<feColorMatrix type="matrix" values="0 0 0 0 0 0 0 0 0 0 0 0 0 0 0 0 0 0 0.5 0"/>
<feBlend mode="normal" in2="BackgroundImageFix" result="effect1_dropShadow_1034_1762"/>
<feBlend mode="normal" in="SourceGraphic" in2="effect1_dropShadow_1034_1762" result="shape"/>
</filter>
<linearGradient id="paint0_linear_1034_1762" x1="24" y1="87" x2="93.5" y2="17.5" gradientUnits="userSpaceOnUse">
<stop stop-color="#44DEE0"/>
<stop offset="1" stop-color="#B85B3F" stop-opacity="0.22"/>
</linearGradient>
<clipPath id="clip0_1034_1762">
<rect width="100" height="100" rx="50" fill="white"/>
</clipPath>
</defs>
</svg>
