<svg width="30" height="30" viewBox="0 0 30 30" fill="none" xmlns="http://www.w3.org/2000/svg">
<g filter="url(#filter0_ii_1836_1524)">
<g clip-path="url(#clip0_1836_1524)">
<rect width="30" height="30" rx="15" fill="#2F4C38" fill-opacity="0.5"/>
<g filter="url(#filter1_d_1836_1524)">
<mask id="path-3-outside-1_1836_1524" maskUnits="userSpaceOnUse" x="8.90625" y="5.82422" width="12" height="11" fill="black">
<rect fill="white" x="8.90625" y="5.82422" width="12" height="11"/>
<path d="M13.2385 16.1314C13.1484 16.1212 12.8327 16.09 12.5369 16.062C11.4859 15.9622 10.3786 15.7018 10.0284 15.472L9.90625 15.3919L9.93207 14.4762C9.96018 13.48 10.0438 12.9466 10.2704 12.3195C10.5089 11.659 10.9152 10.9527 11.2825 10.5597C11.4117 10.4215 11.4143 10.41 11.3459 10.2787C11.3068 10.2035 11.2746 10.0871 11.2744 10.0201C11.2741 9.86793 11.4506 9.59969 11.6003 9.525C11.6901 9.48014 11.7301 9.39673 11.7962 9.11627C11.9289 8.55296 12.1651 8.13814 12.6015 7.70183C13.2136 7.0899 13.8765 6.82869 14.8287 6.82429C15.4188 6.82152 15.7691 6.9038 16.3253 7.17574C17.0762 7.54284 17.6533 8.26819 17.8702 9.11721C17.921 9.31605 17.9677 9.4814 17.9741 9.48473C17.9805 9.48805 18.0403 9.51413 18.1069 9.5427C18.2398 9.5996 18.3832 9.85609 18.3832 10.0367C18.3832 10.0997 18.36 10.218 18.3317 10.2995C18.2838 10.437 18.2925 10.4615 18.4522 10.6385C18.6869 10.8986 19.0121 11.41 19.1774 11.7788C19.531 12.5678 19.6822 13.3276 19.7247 14.5285L19.7541 15.356L19.5948 15.4541C19.2451 15.6696 18.3129 15.8974 17.1672 16.0475C16.7494 16.1022 16.1289 16.1277 14.9924 16.1369C14.1178 16.144 13.3285 16.1415 13.2385 16.1314ZM16.0668 15.8013L16.289 15.7707L16.2655 14.6422C16.2405 13.442 16.2019 13.1901 15.9733 12.7385C15.808 12.4119 15.6471 12.2442 15.3678 12.1073C14.7316 11.7957 14.0278 12.0525 13.6725 12.7259C13.4146 13.2146 13.3395 13.8318 13.3678 15.2314C13.3784 15.7573 13.3829 15.7791 13.484 15.7987C13.657 15.832 15.8267 15.8342 16.0668 15.8013ZM13.0175 14.6025C13.0415 13.3874 13.0831 13.1055 13.3095 12.6263C13.4764 12.2731 13.747 11.9865 14.0887 11.801C14.3667 11.65 14.4109 11.6405 14.8287 11.641C15.2311 11.6416 15.2963 11.6545 15.5197 11.7779C15.6553 11.8528 15.8588 12.0131 15.9718 12.134C16.4451 12.6407 16.5844 13.1843 16.6338 14.7164L16.667 15.7456L16.9522 15.7158C17.109 15.6995 17.403 15.6634 17.6054 15.6357L17.9733 15.5852L17.9502 14.4089C17.9342 13.6011 17.9025 13.1007 17.8489 12.8112C17.7494 12.2729 17.4943 11.5086 17.2746 11.0899L17.1031 10.7631L16.8662 10.7924C15.73 10.9328 13.9083 10.945 12.9935 10.8183C12.6789 10.7748 12.5694 10.7745 12.5181 10.8171C12.4203 10.8984 12.0929 11.6718 11.9572 12.1418C11.785 12.7386 11.6973 13.4709 11.6636 14.5926L11.6337 15.5866L11.9567 15.6379C12.4044 15.709 12.5278 15.7229 12.7777 15.7311L12.995 15.7381L13.0175 14.6025ZM11.3806 14.3449C11.4077 13.0251 11.4611 12.6139 11.704 11.8533C11.7825 11.6075 11.9276 11.2449 12.0265 11.0477L12.2063 10.689L11.9694 10.6321C11.6892 10.5648 11.7021 10.5554 11.2966 11.1254C10.6099 12.0905 10.3262 13.0087 10.2666 14.4584L10.2357 15.2115L10.4416 15.2903C10.611 15.3551 11.2177 15.5307 11.3266 15.5465C11.3427 15.5488 11.3669 15.0081 11.3806 14.3449ZM19.0018 15.3338L19.3654 15.2189L19.3651 14.5536C19.3644 12.9605 18.9544 11.7195 18.1178 10.7789L17.9346 10.5729L17.6912 10.6313C17.5573 10.6635 17.4478 10.6954 17.4478 10.7023C17.4478 10.7091 17.5412 10.9125 17.6554 11.1542C18.0825 12.0585 18.2322 12.8524 18.2753 14.4424L18.3042 15.5116L18.4712 15.4802C18.563 15.463 18.8019 15.3971 19.0018 15.3338ZM16.1273 9.8071L16.3736 9.77746L16.3434 9.53825C16.2182 8.54617 15.8392 7.75554 15.2895 7.34021C15.0102 7.12915 14.8501 7.10475 14.5742 7.23124C13.9119 7.53483 13.4844 8.33337 13.312 9.58883L13.2851 9.78504L13.4605 9.8034C13.7641 9.8352 15.8695 9.8381 16.1273 9.8071ZM13.0046 9.58513C13.0046 9.30462 13.147 8.66413 13.2887 8.30691C13.4429 7.91818 13.5115 7.79745 13.7462 7.50215C13.8991 7.30958 13.9021 7.29956 13.7957 7.33248C13.6085 7.39041 13.4174 7.49699 13.1093 7.71545C12.6647 8.03062 12.3144 8.54874 12.1401 9.149C12.0251 9.54537 12.0384 9.56775 12.4439 9.65743C12.9794 9.77587 13.0046 9.77263 13.0046 9.58513ZM17.3584 9.63355C17.6518 9.56771 17.6526 9.56368 17.4842 9.02036C17.3071 8.44895 16.8474 7.85969 16.3487 7.56476C16.0672 7.39823 15.7953 7.29108 15.8425 7.36517C15.8637 7.39851 15.9584 7.54345 16.0529 7.68726C16.3571 8.15017 16.5557 8.75521 16.6329 9.45471L16.6656 9.75091L16.8855 9.72061C17.0064 9.70393 17.2192 9.66479 17.3584 9.63355Z"/>
</mask>
<path d="M13.2385 16.1314C13.1484 16.1212 12.8327 16.09 12.5369 16.062C11.4859 15.9622 10.3786 15.7018 10.0284 15.472L9.90625 15.3919L9.93207 14.4762C9.96018 13.48 10.0438 12.9466 10.2704 12.3195C10.5089 11.659 10.9152 10.9527 11.2825 10.5597C11.4117 10.4215 11.4143 10.41 11.3459 10.2787C11.3068 10.2035 11.2746 10.0871 11.2744 10.0201C11.2741 9.86793 11.4506 9.59969 11.6003 9.525C11.6901 9.48014 11.7301 9.39673 11.7962 9.11627C11.9289 8.55296 12.1651 8.13814 12.6015 7.70183C13.2136 7.0899 13.8765 6.82869 14.8287 6.82429C15.4188 6.82152 15.7691 6.9038 16.3253 7.17574C17.0762 7.54284 17.6533 8.26819 17.8702 9.11721C17.921 9.31605 17.9677 9.4814 17.9741 9.48473C17.9805 9.48805 18.0403 9.51413 18.1069 9.5427C18.2398 9.5996 18.3832 9.85609 18.3832 10.0367C18.3832 10.0997 18.36 10.218 18.3317 10.2995C18.2838 10.437 18.2925 10.4615 18.4522 10.6385C18.6869 10.8986 19.0121 11.41 19.1774 11.7788C19.531 12.5678 19.6822 13.3276 19.7247 14.5285L19.7541 15.356L19.5948 15.4541C19.2451 15.6696 18.3129 15.8974 17.1672 16.0475C16.7494 16.1022 16.1289 16.1277 14.9924 16.1369C14.1178 16.144 13.3285 16.1415 13.2385 16.1314ZM16.0668 15.8013L16.289 15.7707L16.2655 14.6422C16.2405 13.442 16.2019 13.1901 15.9733 12.7385C15.808 12.4119 15.6471 12.2442 15.3678 12.1073C14.7316 11.7957 14.0278 12.0525 13.6725 12.7259C13.4146 13.2146 13.3395 13.8318 13.3678 15.2314C13.3784 15.7573 13.3829 15.7791 13.484 15.7987C13.657 15.832 15.8267 15.8342 16.0668 15.8013ZM13.0175 14.6025C13.0415 13.3874 13.0831 13.1055 13.3095 12.6263C13.4764 12.2731 13.747 11.9865 14.0887 11.801C14.3667 11.65 14.4109 11.6405 14.8287 11.641C15.2311 11.6416 15.2963 11.6545 15.5197 11.7779C15.6553 11.8528 15.8588 12.0131 15.9718 12.134C16.4451 12.6407 16.5844 13.1843 16.6338 14.7164L16.667 15.7456L16.9522 15.7158C17.109 15.6995 17.403 15.6634 17.6054 15.6357L17.9733 15.5852L17.9502 14.4089C17.9342 13.6011 17.9025 13.1007 17.8489 12.8112C17.7494 12.2729 17.4943 11.5086 17.2746 11.0899L17.1031 10.7631L16.8662 10.7924C15.73 10.9328 13.9083 10.945 12.9935 10.8183C12.6789 10.7748 12.5694 10.7745 12.5181 10.8171C12.4203 10.8984 12.0929 11.6718 11.9572 12.1418C11.785 12.7386 11.6973 13.4709 11.6636 14.5926L11.6337 15.5866L11.9567 15.6379C12.4044 15.709 12.5278 15.7229 12.7777 15.7311L12.995 15.7381L13.0175 14.6025ZM11.3806 14.3449C11.4077 13.0251 11.4611 12.6139 11.704 11.8533C11.7825 11.6075 11.9276 11.2449 12.0265 11.0477L12.2063 10.689L11.9694 10.6321C11.6892 10.5648 11.7021 10.5554 11.2966 11.1254C10.6099 12.0905 10.3262 13.0087 10.2666 14.4584L10.2357 15.2115L10.4416 15.2903C10.611 15.3551 11.2177 15.5307 11.3266 15.5465C11.3427 15.5488 11.3669 15.0081 11.3806 14.3449ZM19.0018 15.3338L19.3654 15.2189L19.3651 14.5536C19.3644 12.9605 18.9544 11.7195 18.1178 10.7789L17.9346 10.5729L17.6912 10.6313C17.5573 10.6635 17.4478 10.6954 17.4478 10.7023C17.4478 10.7091 17.5412 10.9125 17.6554 11.1542C18.0825 12.0585 18.2322 12.8524 18.2753 14.4424L18.3042 15.5116L18.4712 15.4802C18.563 15.463 18.8019 15.3971 19.0018 15.3338ZM16.1273 9.8071L16.3736 9.77746L16.3434 9.53825C16.2182 8.54617 15.8392 7.75554 15.2895 7.34021C15.0102 7.12915 14.8501 7.10475 14.5742 7.23124C13.9119 7.53483 13.4844 8.33337 13.312 9.58883L13.2851 9.78504L13.4605 9.8034C13.7641 9.8352 15.8695 9.8381 16.1273 9.8071ZM13.0046 9.58513C13.0046 9.30462 13.147 8.66413 13.2887 8.30691C13.4429 7.91818 13.5115 7.79745 13.7462 7.50215C13.8991 7.30958 13.9021 7.29956 13.7957 7.33248C13.6085 7.39041 13.4174 7.49699 13.1093 7.71545C12.6647 8.03062 12.3144 8.54874 12.1401 9.149C12.0251 9.54537 12.0384 9.56775 12.4439 9.65743C12.9794 9.77587 13.0046 9.77263 13.0046 9.58513ZM17.3584 9.63355C17.6518 9.56771 17.6526 9.56368 17.4842 9.02036C17.3071 8.44895 16.8474 7.85969 16.3487 7.56476C16.0672 7.39823 15.7953 7.29108 15.8425 7.36517C15.8637 7.39851 15.9584 7.54345 16.0529 7.68726C16.3571 8.15017 16.5557 8.75521 16.6329 9.45471L16.6656 9.75091L16.8855 9.72061C17.0064 9.70393 17.2192 9.66479 17.3584 9.63355Z" stroke="#44DEE0" stroke-width="0.675" mask="url(#path-3-outside-1_1836_1524)"/>
<path d="M1.53721 23.1046C1.50408 23.0637 1.49053 22.9865 1.50702 22.9331C1.59124 22.6611 3.2482 20.9783 4.45884 19.9352C5.92225 18.6743 7.54308 17.8043 9.5336 17.2113C10.4757 16.9305 10.6864 16.8967 11.019 16.9725C12.0507 17.2075 14.1475 17.3702 15.4037 17.3126C17.076 17.2361 18.5772 17.0099 19.5473 16.6884C20.1903 16.4752 20.4258 16.2905 20.4271 15.9981C20.4275 15.9036 20.4444 15.8007 20.4646 15.7693C20.4848 15.7378 20.7879 15.6388 21.1381 15.5493C23.8585 14.8537 25.7965 13.7332 27.7417 11.7311C28.2388 11.2193 28.5215 10.961 28.4987 11.0391C28.4787 11.1077 28.3168 11.452 28.1389 11.8043C26.7318 14.5907 24.2675 17.072 21.6008 18.3875C20.2335 19.0621 18.2587 19.5955 16.3033 19.8186C14.7473 19.996 12.388 20.1032 10.0062 20.1047C6.51122 20.1069 5.1763 20.3153 3.96202 21.0482C3.63302 21.2468 2.45358 22.3811 1.97286 22.9613C1.78649 23.1862 1.64176 23.2338 1.53721 23.1046ZM4.18411 19.4515C4.18431 19.1281 4.28946 18.3573 4.38617 17.9694C4.69317 16.7382 5.48355 15.6068 6.61162 14.7836C7.13193 14.404 8.16579 13.8689 8.80369 13.649C9.04937 13.5644 9.26967 13.4951 9.29321 13.4951C9.33429 13.4951 9.3037 13.7959 9.24628 13.9562C9.2035 14.0757 9.19551 14.2211 9.17542 15.2445C9.15363 16.353 9.14578 16.3314 9.65639 16.5729C9.84135 16.6603 9.92756 16.7247 9.88128 16.741C9.84005 16.7555 9.49147 16.8625 9.10665 16.9787C7.38076 17.4999 5.74013 18.3745 4.47693 19.4468C4.34939 19.555 4.23134 19.6436 4.21455 19.6436C4.19776 19.6436 4.18406 19.5571 4.18411 19.4515ZM20.4594 14.6783C20.4277 13.9817 20.3372 13.3404 20.2323 13.0691C20.2016 12.9897 20.1764 12.8802 20.1764 12.8257C20.1764 12.7313 20.2199 12.7265 21.0775 12.7265C23.3149 12.7265 25.4744 12.2795 27.5412 11.3885C27.8674 11.2479 28.1428 11.1417 28.1533 11.1524C28.1813 11.1811 27.3794 11.9248 26.8533 12.3581C26.3148 12.8017 25.4756 13.3807 24.8485 13.7414C23.7714 14.3608 21.7726 15.1294 20.7092 15.3331L20.491 15.3749L20.4594 14.6783Z" fill="#51B16E"/>
</g>
</g>
<rect x="0.084375" y="0.084375" width="29.8312" height="29.8312" rx="14.9156" stroke="url(#paint0_linear_1836_1524)" stroke-width="0.16875"/>
</g>
<defs>
<filter id="filter0_ii_1836_1524" x="-1.0125" y="-1.0125" width="32.025" height="32.025" filterUnits="userSpaceOnUse" color-interpolation-filters="sRGB">
<feFlood flood-opacity="0" result="BackgroundImageFix"/>
<feBlend mode="normal" in="SourceGraphic" in2="BackgroundImageFix" result="shape"/>
<feColorMatrix in="SourceAlpha" type="matrix" values="0 0 0 0 0 0 0 0 0 0 0 0 0 0 0 0 0 0 127 0" result="hardAlpha"/>
<feOffset dx="1.0125" dy="-1.0125"/>
<feGaussianBlur stdDeviation="1.45125"/>
<feComposite in2="hardAlpha" operator="arithmetic" k2="-1" k3="1"/>
<feColorMatrix type="matrix" values="0 0 0 0 0 0 0 0 0 0 0 0 0 0 0 0 0 0 0.15 0"/>
<feBlend mode="normal" in2="shape" result="effect1_innerShadow_1836_1524"/>
<feColorMatrix in="SourceAlpha" type="matrix" values="0 0 0 0 0 0 0 0 0 0 0 0 0 0 0 0 0 0 127 0" result="hardAlpha"/>
<feOffset dx="-1.0125" dy="1.0125"/>
<feGaussianBlur stdDeviation="1.45125"/>
<feComposite in2="hardAlpha" operator="arithmetic" k2="-1" k3="1"/>
<feColorMatrix type="matrix" values="0 0 0 0 0.823529 0 0 0 0 0.705882 0 0 0 0 0.54902 0 0 0 0.3 0"/>
<feBlend mode="normal" in2="effect1_innerShadow_1836_1524" result="effect2_innerShadow_1836_1524"/>
</filter>
<filter id="filter1_d_1836_1524" x="-3.5625" y="1.42383" width="37.125" height="26.8145" filterUnits="userSpaceOnUse" color-interpolation-filters="sRGB">
<feFlood flood-opacity="0" result="BackgroundImageFix"/>
<feColorMatrix in="SourceAlpha" type="matrix" values="0 0 0 0 0 0 0 0 0 0 0 0 0 0 0 0 0 0 127 0" result="hardAlpha"/>
<feOffset/>
<feGaussianBlur stdDeviation="2.53125"/>
<feComposite in2="hardAlpha" operator="out"/>
<feColorMatrix type="matrix" values="0 0 0 0 0 0 0 0 0 0 0 0 0 0 0 0 0 0 0.4 0"/>
<feBlend mode="normal" in2="BackgroundImageFix" result="effect1_dropShadow_1836_1524"/>
<feBlend mode="normal" in="SourceGraphic" in2="effect1_dropShadow_1836_1524" result="shape"/>
</filter>
<linearGradient id="paint0_linear_1836_1524" x1="7.2" y1="26.1" x2="28.05" y2="5.25" gradientUnits="userSpaceOnUse">
<stop stop-color="#44DEE0"/>
<stop offset="1" stop-color="#B85B3F" stop-opacity="0.22"/>
</linearGradient>
<clipPath id="clip0_1836_1524">
<rect width="30" height="30" rx="15" fill="white"/>
</clipPath>
</defs>
</svg>
